Coordinates
version=1
nRows=43
nColumns=12
inDegrees=yes

Units are S.I. units (second, meters, Newtons, ...)
Angles are in degrees

endheader
time	SC_y	SC_z	SC_x	AC_y	AC_z	AC_x	GH_y	GH_z	GH_yy	EL_x	PS_y
       0.0              -19.62           34.3          59.09          60.79         -19.31         -17.65          135.8          54.96          18.41          97.14          28.97
   0.04325              -19.63          34.29           59.1          60.79         -19.31         -17.65          135.7          54.96          18.43          97.15          28.98
    0.0865              -19.63          34.28           59.1          60.79         -19.31         -17.64          135.7          54.97          18.45          97.15          28.99
    0.1297              -19.63          34.28           59.1          60.79         -19.31         -17.64          135.6          54.97          18.46          97.16          29.01
     0.173              -19.64          34.27           59.1          60.79         -19.31         -17.63          135.6          54.98          18.48          97.16          29.02
    0.2162              -19.64          34.27          59.11          60.79         -19.31         -17.63          135.5          54.98          18.51          97.17          29.04
    0.2595              -19.65          34.26          59.11          60.79         -19.31         -17.62          135.5          54.99          18.53          97.17          29.06
    0.3027              -19.65          34.25          59.11          60.79         -19.31         -17.61          135.4          54.99          18.55          97.18          29.08
     0.346              -19.66          34.24          59.12          60.78         -19.31          -17.6          135.3           55.0          18.58          97.18           29.1
    0.3892              -19.66          34.24          59.12          60.78          -19.3          -17.6          135.3          55.01          18.61          97.19          29.12
    0.4325              -19.67          34.23          59.13          60.78          -19.3         -17.59          135.2          55.02          18.63           97.2          29.14
    0.4757              -19.67          34.22          59.13          60.78          -19.3         -17.58          135.1          55.03          18.67           97.2          29.17
     0.519              -19.68          34.21          59.14          60.78          -19.3         -17.57          135.0          55.03           18.7          97.21           29.2
    0.5622              -19.69          34.19          59.14          60.78          -19.3         -17.56          134.9          55.04          18.74          97.22          29.22
    0.6055               -19.7          34.18          59.15          60.78          -19.3         -17.55          134.8          55.05          18.78          97.23          29.26
    0.6487               -19.7          34.17          59.15          60.78         -19.29         -17.54          134.7          55.07          18.82          97.24          29.29
     0.692              -19.71          34.15          59.16          60.77         -19.29         -17.52          134.6          55.08          18.87          97.25          29.33
    0.7352              -19.72          34.14          59.17          60.77         -19.29         -17.51          134.5          55.09          18.92          97.27          29.37
    0.7785              -19.74          34.12          59.18          60.77         -19.29         -17.49          134.3          55.11          18.98          97.28          29.41
    0.8217              -19.75           34.1          59.19          60.77         -19.28         -17.48          134.2          55.12          19.04          97.29          29.46
     0.865              -19.76          34.08           59.2          60.77         -19.28         -17.46          134.0          55.14          19.11          97.31          29.52
    0.9082              -19.78          34.06          59.21          60.76         -19.28         -17.44          133.8          55.16          19.18          97.33          29.58
    0.9515              -19.79          34.03          59.22          60.76         -19.27         -17.41          133.6          55.18          19.26          97.35          29.64
    0.9947              -19.81           34.0          59.23          60.76         -19.27         -17.39          133.3          55.21          19.35          97.37          29.71
     1.038              -19.83          33.97          59.25          60.75         -19.26         -17.36          133.1          55.23          19.46          97.39          29.79
     1.081              -19.85          33.93          59.26          60.75         -19.26         -17.33          132.8          55.26          19.57          97.42          29.88
     1.124              -19.88          33.89          59.28          60.75         -19.25         -17.29          132.5           55.3          19.69          97.45          29.98
     1.168              -19.91          33.85           59.3          60.74         -19.25         -17.25          132.1          55.33          19.84          97.48           30.1
     1.211              -19.94           33.8          59.33          60.73         -19.24         -17.21          131.7          55.38           20.0          97.52          30.23
     1.254              -19.98          33.74          59.36          60.73         -19.23         -17.16          131.2          55.42          20.18          97.56          30.37
     1.297              -20.02          33.68          59.39          60.72         -19.22          -17.1          130.7          55.48          20.39          97.61          30.54
     1.341              -20.07           33.6          59.42          60.71         -19.21         -17.03          130.1          55.54          20.63          97.67          30.73
     1.384              -20.12          33.52          59.46           60.7          -19.2         -16.95          129.3          55.62          20.91          97.74          30.95
     1.427              -20.19          33.42          59.51          60.69         -19.18         -16.86          128.5           55.7          21.23          97.81           31.2
      1.47              -20.26           33.3          59.57          60.68         -19.16         -16.76          127.5           55.8           21.6           97.9           31.5
     1.514              -20.35          33.16          59.63          60.66         -19.14         -16.63          126.4          55.92          22.04          98.01          31.85
     1.557              -20.46          32.99          59.71          60.64         -19.12         -16.49          125.0          56.05          22.57          98.13          32.27
       1.6              -20.59           32.8          59.81          60.62         -19.09         -16.31          123.4          56.22           23.2          98.28          32.77
     1.643              -20.74          32.56          59.92           60.6         -19.05          -16.1          121.4          56.42          23.97          98.46          33.38
     1.687              -20.93          32.27          60.06          60.56         -19.01         -15.83          119.0          56.67           24.9          98.69          34.12
      1.73              -21.16          31.91          60.23          60.52         -18.96         -15.51          116.1          56.97          26.05          98.96          35.03
     1.773              -21.45          31.46          60.44          60.47         -18.89         -15.11          112.4          57.35          27.48           99.3          36.17
     1.816              -21.81          30.89          60.71          60.41          -18.8          -14.6          107.7          57.83          29.29          99.73          37.61
